<svg width="15" height="15" viewBox="0 0 15 15" fill="none" xmlns="http://www.w3.org/2000/svg">
<path fill-rule="evenodd" clip-rule="evenodd" d="M2.42417 1.17417C2.77581 0.822544 3.25272 0.625 3.75 0.625H8.75C8.91576 0.625 9.07473 0.690848 9.19194 0.808058L12.9419 4.55806C13.0592 4.67527 13.125 4.83424 13.125 5V12.5C13.125 12.9973 12.9275 13.4742 12.5758 13.8258C12.2242 14.1775 11.7473 14.375 11.25 14.375H3.75C3.25272 14.375 2.77581 14.1775 2.42417 13.8258C2.07254 13.4742 1.875 12.9973 1.875 12.5V2.5C1.875 2.00272 2.07254 1.52581 2.42417 1.17417ZM3.75 1.875C3.58424 1.875 3.42527 1.94085 3.30806 2.05806C3.19085 2.17527 3.125 2.33424 3.125 2.5V12.5C3.125 12.6658 3.19085 12.8247 3.30806 12.9419C3.42527 13.0592 3.58424 13.125 3.75 13.125H11.25C11.4158 13.125 11.5747 13.0592 11.6919 12.9419C11.8092 12.8247 11.875 12.6658 11.875 12.5V5.25888L8.49112 1.875H3.75Z" fill="white"/>
<path fill-rule="evenodd" clip-rule="evenodd" d="M8.75 0.625C9.09518 0.625 9.375 0.904822 9.375 1.25V4.375H12.5C12.8452 4.375 13.125 4.65482 13.125 5C13.125 5.34518 12.8452 5.625 12.5 5.625H8.75C8.40482 5.625 8.125 5.34518 8.125 5V1.25C8.125 0.904822 8.40482 0.625 8.75 0.625Z" fill="white"/>
<path fill-rule="evenodd" clip-rule="evenodd" d="M4.375 8.125C4.375 7.77982 4.65482 7.5 5 7.5H10C10.3452 7.5 10.625 7.77982 10.625 8.125C10.625 8.47018 10.3452 8.75 10 8.75H5C4.65482 8.75 4.375 8.47018 4.375 8.125Z" fill="white"/>
<path fill-rule="evenodd" clip-rule="evenodd" d="M4.375 10.625C4.375 10.2798 4.65482 10 5 10H10C10.3452 10 10.625 10.2798 10.625 10.625C10.625 10.9702 10.3452 11.25 10 11.25H5C4.65482 11.25 4.375 10.9702 4.375 10.625Z" fill="white"/>
<path fill-rule="evenodd" clip-rule="evenodd" d="M4.375 5.625C4.375 5.27982 4.65482 5 5 5H6.25C6.59518 5 6.875 5.27982 6.875 5.625C6.875 5.97018 6.59518 6.25 6.25 6.25H5C4.65482 6.25 4.375 5.97018 4.375 5.625Z" fill="white"/>
</svg>
